<svg xmlns="http://www.w3.org/2000/svg" width="120" height="38" viewBox="0 0 120 38">
  <g id="Exclusion_1" data-name="Exclusion 1" fill="rgba(255,255,255,0)" opacity="0.76">
    <path d="M 110.476188659668 37.5 L 0.5000038146972656 37.5 L 0.5000038146972656 0.5 L 4.923893928527832 0.5 L 4.703265190124512 32.99660110473633 L 4.699850082397461 33.5 L 5.203249931335449 33.5 L 8.052634239196777 33.5 L 8.552634239196777 33.5 L 8.552634239196777 33 L 8.552634239196777 0.5 L 12.87717342376709 0.5 L 12.87717342376709 33 L 12.87717342376709 33.5 L 13.37717342376709 33.5 L 16.50291061401367 33.5 L 17.00291061401367 33.5 L 17.00291061401367 33 L 17.00291061401367 0.5 L 119.5 0.5 L 119.5 27.94407844543457 L 110.476188659668 37.5 Z" stroke="none"/>
    <path d="M 1.000007629394531 1 L 1.000007629394531 37 L 110.2606353759766 37 L 119 27.74530982971191 L 119 1 L 17.50290679931641 1 L 17.50290679931641 34 L 12.37716674804688 34 L 12.37716674804688 1 L 9.052635192871094 1 L 9.052635192871094 34 L 4.196418762207031 34 L 4.42047119140625 1 L 1.000007629394531 1 M 7.62939453125e-06 0 L 5.427284240722656 0 L 5.203239440917969 33 L 8.052635192871094 33 L 8.052635192871094 0 L 13.37716674804688 0 L 13.37716674804688 33 L 16.50290679931641 33 L 16.50290679931641 0 L 120 0 L 120 28.14284896850586 L 110.6917190551758 38 L 7.62939453125e-06 38 L 7.62939453125e-06 0 Z" stroke="none" fill="#fde047"/>
  </g>
</svg>
